<svg width="625" height="73" viewBox="0 0 625 73" fill="none" xmlns="http://www.w3.org/2000/svg">
<path d="M0 70.8182V1H27.5454C32.8182 1 37.3182 1.94318 41.0454 3.82954C44.7954 5.69318 47.6477 8.34091 49.6023 11.7727C51.5795 15.1818 52.5682 19.1932 52.5682 23.8068C52.5682 28.4432 51.5682 32.4318 49.5682 35.7727C47.5682 39.0909 44.6704 41.6364 40.875 43.4091C37.1023 45.1818 32.5341 46.0682 27.1704 46.0682H8.72728V34.2046H24.7841C27.6023 34.2046 29.9432 33.8182 31.8068 33.0455C33.6704 32.2727 35.0568 31.1137 35.9659 29.5682C36.8977 28.0227 37.3636 26.1023 37.3636 23.8068C37.3636 21.4887 36.8977 19.5341 35.9659 17.9432C35.0568 16.3523 33.6591 15.1477 31.7727 14.3296C29.9091 13.4887 27.5568 13.0682 24.7159 13.0682H14.7613V70.8182H0ZM37.7045 39.0455L55.0568 70.8182H38.7613L21.7841 39.0455H37.7045Z" fill="#373D52"/>
<path d="M244 70.8182V1H271.545C276.818 1 281.318 1.94318 285.045 3.82954C288.795 5.69318 291.648 8.34091 293.602 11.7727C295.58 15.1818 296.568 19.1932 296.568 23.8068C296.568 28.4432 295.568 32.4318 293.568 35.7727C291.568 39.0909 288.67 41.6364 284.875 43.4091C281.102 45.1818 276.534 46.0682 271.17 46.0682H252.727V34.2046H268.784C271.602 34.2046 273.943 33.8182 275.807 33.0455C277.67 32.2727 279.057 31.1137 279.966 29.5682C280.898 28.0227 281.364 26.1023 281.364 23.8068C281.364 21.4887 280.898 19.5341 279.966 17.9432C279.057 16.3523 277.659 15.1477 275.773 14.3296C273.909 13.4887 271.557 13.0682 268.716 13.0682H258.761V70.8182H244ZM281.705 39.0455L299.057 70.8182H282.761L265.784 39.0455H281.705Z" fill="#373D52"/>
<rect x="65" y="59" width="47" height="12" fill="#373D52"/>
<rect x="65" y="30" width="47" height="12" fill="#373D52"/>
<rect x="65" y="1" width="47" height="12" fill="#373D52"/>
<rect x="187" y="59" width="47" height="12" fill="#373D52"/>
<rect x="187" y="30" width="47" height="12" fill="#373D52"/>
<rect x="187" y="1" width="47" height="12" fill="#373D52"/>
<path d="M158.614 14.625C160.682 16.1479 161.852 18.2842 162.125 21.0342H176.273C176.204 16.875 175.091 13.2158 172.932 10.0566C170.773 6.89795 167.75 4.43164 163.864 2.65918C160 0.88623 155.477 0 150.295 0C145.204 0 140.659 0.88623 136.659 2.65918C132.659 4.43164 129.511 6.89795 127.216 10.0566C124.943 13.2158 123.818 16.9092 123.841 21.1362C123.818 26.2954 125.511 30.3979 128.92 33.4434C132.329 36.4888 136.977 38.7271 142.864 40.1592L150.466 42.0684C153.011 42.6816 155.159 43.3638 156.909 44.1138C158.682 44.8638 160.023 45.7729 160.932 46.8408C161.864 47.9092 162.329 49.2271 162.329 50.7954C162.329 52.4771 161.818 53.9658 160.795 55.2612C159.873 56.4302 158.607 57.3682 157 58.0742V71.2876C159.83 70.8696 162.39 70.1758 164.682 69.2046C168.727 67.4771 171.818 65.0566 173.954 61.9434C176.114 58.8066 177.204 55.1021 177.227 50.8296C177.204 47.9204 176.67 45.3408 175.625 43.0908C174.602 40.8408 173.159 38.8862 171.295 37.2271C169.432 35.5684 167.227 34.1704 164.682 33.0342C162.136 31.8979 159.341 30.9888 156.295 30.3066L150.023 28.8066C148.5 28.4658 147.068 28.0566 145.727 27.5796C144.386 27.0796 143.204 26.5 142.182 25.8408C141.159 25.1592 140.352 24.3521 139.761 23.4204C139.193 22.4888 138.932 21.3979 138.977 20.1479C138.977 18.6479 139.409 17.3066 140.273 16.125C141.159 14.9434 142.432 14.0229 144.091 13.3638C145.75 12.6816 147.784 12.3408 150.193 12.3408C153.739 12.3408 156.545 13.1021 158.614 14.625Z" fill="#373D52"/>
<path d="M142 71.0752V57.7305C140.505 56.9712 139.27 55.9663 138.295 54.7158C137.114 53.1479 136.443 51.1934 136.284 48.8521H122C122.114 53.875 123.33 58.0908 125.648 61.5C127.989 64.8862 131.239 67.4434 135.398 69.1704C137.427 70.0088 139.628 70.644 142 71.0752Z" fill="#E4A393"/>
<path d="M325.398 1L342.273 54.0455H342.92L359.83 1H376.193L352.125 70.8182H333.102L309 1H325.398Z" fill="#373D52"/>
<path d="M444.398 1V70.8182H431.648L401.273 26.875H400.761V70.8182H386V1H398.955L429.091 44.9091H429.705V1H444.398Z" fill="#373D52"/>
<path d="M519.386 36.8636C519.386 44.4772 517.943 50.9545 515.057 56.2954C512.193 61.6363 508.284 65.7159 503.33 68.5341C498.398 71.3295 492.852 72.7272 486.693 72.7272C480.489 72.7272 474.92 71.3182 469.989 68.5C465.057 65.6818 461.159 61.6022 458.295 56.2613C455.432 50.9204 454 44.4545 454 36.8636C454 29.25 455.432 22.7727 458.295 17.4318C461.159 12.0909 465.057 8.02273 469.989 5.22728C474.92 2.40909 480.489 1 486.693 1C492.852 1 498.398 2.40909 503.33 5.22728C508.284 8.02273 512.193 12.0909 515.057 17.4318C517.943 22.7727 519.386 29.25 519.386 36.8636ZM504.42 36.8636C504.42 31.9318 503.682 27.7727 502.205 24.3863C500.75 21 498.693 18.4318 496.034 16.6818C493.375 14.9318 490.261 14.0568 486.693 14.0568C483.125 14.0568 480.011 14.9318 477.352 16.6818C474.693 18.4318 472.625 21 471.148 24.3863C469.693 27.7727 468.966 31.9318 468.966 36.8636C468.966 41.7954 469.693 45.9545 471.148 49.3409C472.625 52.7272 474.693 55.2954 477.352 57.0454C480.011 58.7954 483.125 59.6704 486.693 59.6704C490.261 59.6704 493.375 58.7954 496.034 57.0454C498.693 55.2954 500.75 52.7272 502.205 49.3409C503.682 45.9545 504.42 41.7954 504.42 36.8636Z" fill="#373D52"/>
<path d="M548.977 71.8182L529 2H545.125L556.682 50.5114H557.261L570.011 2H583.818L596.534 50.6137H597.148L608.705 2H624.83L604.852 71.8182H590.466L577.17 26.1705H576.625L563.364 71.8182H548.977Z" fill="#373D52"/>
</svg>
